<?xml version="1.0" encoding="UTF-8" standalone="no"?>
<svg
   xmlns:dc="http://purl.org/dc/elements/1.1/"
   xmlns:cc="http://creativecommons.org/ns#"
   xmlns:rdf="http://www.w3.org/1999/02/22-rdf-syntax-ns#"
   xmlns:svg="http://www.w3.org/2000/svg"
   xmlns="http://www.w3.org/2000/svg"
   xmlns:sodipodi="http://sodipodi.sourceforge.net/DTD/sodipodi-0.dtd"
   xmlns:inkscape="http://www.inkscape.org/namespaces/inkscape"
   width="50mm"
   height="50mm"
   viewBox="0 0 50 50"
   version="1.1"
   id="svg8"
   inkscape:version="1.0.2 (394de47547, 2021-03-26)"
   sodipodi:docname="playboy.svg">
  <defs
     id="defs2" />
  <sodipodi:namedview
     id="base"
     pagecolor="#ffffff"
     bordercolor="#666666"
     borderopacity="1.0"
     inkscape:pageopacity="0.0"
     inkscape:pageshadow="2"
     inkscape:zoom="2.8"
     inkscape:cx="58.682056"
     inkscape:cy="97.40594"
     inkscape:document-units="mm"
     inkscape:current-layer="layer1"
     inkscape:document-rotation="0"
     showgrid="false"
     inkscape:window-width="1352"
     inkscape:window-height="1023"
     inkscape:window-x="0"
     inkscape:window-y="27"
     inkscape:window-maximized="0" />
  <metadata
     id="metadata5">
    <rdf:RDF>
      <cc:Work
         rdf:about="">
        <dc:format>image/svg+xml</dc:format>
        <dc:type
           rdf:resource="http://purl.org/dc/dcmitype/StillImage" />
        <dc:title></dc:title>
      </cc:Work>
    </rdf:RDF>
  </metadata>
  <g
     inkscape:label="Capa 1"
     inkscape:groupmode="layer"
     id="layer1">
    <path
       style="fill:#000000;stroke:none;stroke-width:0.0778605;stroke-miterlimit:4;stroke-dasharray:none;stroke-opacity:1"
       d="m 24.87237,46.180177 c -1.158574,-1.231045 -1.697323,-1.3253 -2.926673,-0.512034 -0.482968,0.319508 -0.935029,0.50815 -1.004549,0.4192 -0.06959,-0.08895 -0.207195,-1.034087 -0.305906,-2.100299 -0.177339,-1.915981 -0.171312,-1.935383 0.513935,-1.665187 0.381357,0.15037 1.012428,0.482983 1.402376,0.739161 0.60542,0.397751 0.888961,0.353904 1.941391,-0.300204 0.677828,-0.421286 1.30647,-0.67124 1.396963,-0.555446 0.09049,0.115793 0.125897,1.298943 0.07841,2.629223 l -0.08615,2.418689 z m 2.070814,-1.705062 c 0.08917,-0.584181 2.60309,-1.893033 4.847392,-2.523635 0.796425,-0.22378 0.911894,-0.166071 0.824843,0.412252 -0.07298,0.484026 -0.787847,0.951802 -2.551535,1.669336 -2.933028,1.193279 -3.241858,1.237022 -3.1207,0.442047 z m -4.045251,-3.972047 0.09871,-2.000155 -1.154199,-0.433859 c -3.042743,-1.143757 -5.006125,-4.040009 -4.602887,-6.789871 0.57989,-3.954279 3.405496,-6.811401 8.065494,-8.155444 0.812374,-0.2343 0.72095,-0.324495 -1.484641,-1.464964 -1.292659,-0.668411 -2.928472,-1.724197 -3.635163,-2.346195 -1.854898,-1.632646 -4.157133,-4.998396 -5.163483,-7.548773 -0.708528,-1.79559 -1.663566,-5.9894067 -1.686582,-7.4061602 -0.0036,-0.1697458 0.871478,0.313998 1.942733,1.0749872 4.983437,3.540116 7.211003,6.098797 11.190821,12.854271 l 2.587503,4.392107 0.171868,-4.022967 C 29.491061,12.499507 30.911304,8.5372996 34.323096,4.4420677 l 1.658429,-1.9906414 0.09025,2.7685563 c 0.126836,3.8937012 -0.442336,9.7023834 -1.240621,12.6611514 -0.372443,1.380377 -1.218501,3.427047 -1.880161,4.54816 l -1.20301,2.038386 0.768924,1.48643 c 1.60405,3.100875 1.920143,5.779889 1.200378,10.173786 -0.207171,1.264717 -0.600189,2.615437 -0.873376,3.001607 -0.445331,0.629507 -3.552487,2.482352 -5.339818,3.184189 -0.636689,0.250018 -0.676995,0.186234 -0.55493,-0.877854 0.163203,-1.42286 -0.05546,-1.427292 -1.976974,-0.04003 -0.843619,0.609084 -1.677678,1.107424 -1.853473,1.107424 -0.20665,0 -0.284689,-0.707065 -0.220773,-2.000155 z m 0.194074,-10.873201 c 0.521788,-0.423158 0.313881,-2.274952 -0.311645,-2.776015 -0.97147,-0.778155 -2.025785,0.974795 -1.54678,2.571713 0.173376,0.577733 1.251786,0.696294 1.858425,0.204302 z"
       id="path945" />
    <path
       style="fill:none;stroke:#ff0000;stroke-width:0.0264583;stroke-linecap:butt;stroke-linejoin:miter;stroke-miterlimit:4;stroke-dasharray:none;stroke-opacity:1"
       d="m 13.110749,4.3097733 c 0.05051,1.7488996 1.409789,6.7908237 1.409789,6.7908237 v 0 l 2.026948,4.023921 1.487737,2.190476 1.831606,2.116862 2.36914,1.576009 3.120041,1.679254 0.11064,0.115546 -2.543542,0.906451 -1.450552,0.755762 -1.877086,1.469019 -1.111224,1.265389 -1.18536,2.263112 -0.321795,1.427453 -0.08075,1.582479 0.270589,1.428715 0.964519,1.811385 1.465915,1.586857 2.256649,1.166389 0.847355,0.27945 -0.179671,2.992512 -2.471589,-0.680289 0.107813,6.121051 3.17134,-1.201087 2.638087,1.838995 2.020919,-1.996432 5.094372,-2.663307 0.266282,-4.086598 0.712689,-2.690154 0.341961,-3.216986 -0.0611,-2.689937 -0.400751,-1.936016 -0.685186,-1.898795 -1.118555,-2.109053 2.106498,-3.80447 1.055188,-3.090896 0.642374,-3.476858 0.395962,-4.5207879 0.07836,-5.261828 L 36.242779,1.3826086 31.601215,7.284366 29.521416,11.995121 28.97185,15.671516 28.847594,21.579649 23.793378,13.136578 20.683733,9.2986619 16.331628,5.6263826 13.039189,3.4255308 Z"
       id="path1508" />
  </g>
</svg>
