<?xml version="1.0" encoding="UTF-8" standalone="no"?>
<svg
   xmlns:dc="http://purl.org/dc/elements/1.1/"
   xmlns:cc="http://creativecommons.org/ns#"
   xmlns:rdf="http://www.w3.org/1999/02/22-rdf-syntax-ns#"
   xmlns:svg="http://www.w3.org/2000/svg"
   xmlns="http://www.w3.org/2000/svg"
   xmlns:sodipodi="http://sodipodi.sourceforge.net/DTD/sodipodi-0.dtd"
   xmlns:inkscape="http://www.inkscape.org/namespaces/inkscape"
   version="1.1"
   id="svg933"
   width="284"
   height="130"
   viewBox="0 0 284 130"
   sodipodi:docname="playboydisñ.png.svg"
   inkscape:version="1.0.1 (0767f8302a, 2020-10-17)">
  <metadata
     id="metadata939">
    <rdf:RDF>
      <cc:Work
         rdf:about="">
        <dc:format>image/svg+xml</dc:format>
        <dc:type
           rdf:resource="http://purl.org/dc/dcmitype/StillImage" />
        <dc:title></dc:title>
      </cc:Work>
    </rdf:RDF>
  </metadata>
  <defs
     id="defs937" />
  <sodipodi:namedview
     pagecolor="#ffffff"
     bordercolor="#666666"
     borderopacity="1"
     objecttolerance="10"
     gridtolerance="10"
     guidetolerance="10"
     inkscape:pageopacity="0"
     inkscape:pageshadow="2"
     inkscape:window-width="1920"
     inkscape:window-height="960"
     id="namedview935"
     showgrid="false"
     inkscape:zoom="2.9429585"
     inkscape:cx="182.74138"
     inkscape:cy="59.619222"
     inkscape:window-x="0"
     inkscape:window-y="27"
     inkscape:window-maximized="1"
     inkscape:current-layer="g941" />
  <g
     inkscape:groupmode="layer"
     inkscape:label="Image"
     id="g941">
    <path
       style="fill:#000000;stroke:none;stroke-width:0.294276;stroke-miterlimit:4;stroke-dasharray:none;stroke-opacity:1"
       d="m 122.70432,123.33155 c -4.37886,-4.65277 -6.41508,-5.00901 -11.06144,-1.93525 -1.82539,1.20759 -3.53397,1.92057 -3.79672,1.58438 -0.26303,-0.33618 -0.7831,-3.90836 -1.15618,-7.93814 -0.67026,-7.2415 -0.64748,-7.31483 1.94243,-6.29362 1.44135,0.56833 3.8265,1.82545 5.30032,2.79368 2.2882,1.50331 3.35985,1.33759 7.33754,-1.13463 2.56187,-1.59226 4.93784,-2.53697 5.27986,-2.09932 0.34203,0.43764 0.47583,4.90939 0.29637,9.93722 l -0.32559,9.1415 z m 7.8267,-6.44433 c 0.33701,-2.20793 9.83845,-7.15477 18.32085,-9.53815 3.01011,-0.84578 3.44653,-0.62767 3.11752,1.55812 -0.27582,1.82939 -2.97769,3.59736 -9.6436,6.3093 -11.08546,4.51003 -12.25269,4.67536 -11.79477,1.67073 z m -15.28914,-15.01246 0.37308,-7.559642 -4.36233,-1.639783 C 99.752499,88.352473 92.331844,77.406011 93.855895,67.012832 96.047605,52.067525 106.72706,41.268951 124.33965,36.189105 c 3.07039,-0.885543 2.72485,-1.226437 -5.61124,-5.536874 -4.88564,-2.526276 -11.06824,-6.51665 -13.7392,-8.867506 C 97.978572,15.614092 89.277212,2.8931499 85.473683,-6.7460721 82.795782,-13.532554 79.18619,-29.3832 79.099199,-34.737859 c -0.0137,-0.641559 3.293777,1.186764 7.342616,4.062944 18.835035,13.379966 27.254185,23.0505695 42.296015,48.583071 l 9.77954,16.600091 0.64958,-15.204915 c 0.99384,-23.2688043 6.36169,-38.244078 19.25665,-53.72212 l 6.26808,-7.523684 0.34112,10.463835 c 0.47938,14.716351 -1.67182,36.6704258 -4.68896,47.85317 -1.40766,5.217173 -4.60536,12.952621 -7.10612,17.189898 l -4.54681,7.704136 2.90617,5.618002 c 6.06255,11.719844 7.25723,21.845251 4.53686,38.452105 -0.78301,4.780032 -2.26843,9.885116 -3.30095,11.344657 -1.68314,2.379238 -13.42672,9.382119 -20.18199,12.034729 -2.40638,0.94495 -2.55872,0.70388 -2.09737,-3.31787 0.61683,-5.37774 -0.2096,-5.39449 -7.47203,-0.15129 -3.18848,2.30205 -6.34083,4.18554 -7.00525,4.18554 -0.78104,0 -1.07599,-2.67237 -0.83442,-7.55964 z m 0.73351,-41.095564 c 1.97211,-1.599338 1.18632,-8.598246 -1.17787,-10.492028 -3.6717,-2.941055 -7.65651,3.684267 -5.8461,9.719861 0.65528,2.18356 4.73116,2.631665 7.02397,0.772167 z"
       id="path945" />
    <path
       style="fill:none;stroke:#ff0000;stroke-width:0.1;stroke-linecap:butt;stroke-linejoin:miter;stroke-opacity:1;stroke-miterlimit:4;stroke-dasharray:none"
       d="m 78.25095,-34.918798 c 0.190909,6.610014 5.328335,25.666107 5.328335,25.666107 v 0 l 7.660907,15.2085194 5.622943,8.2789636 6.922605,8.000737 8.95423,5.95657 11.79228,6.346787 0.41817,0.436709 -9.61339,3.42596 -5.4824,2.85642 -7.0945,5.552201 -4.199901,4.78257 -4.4801,8.553496 -1.216233,5.395098 -0.305217,5.981022 1.022698,5.399868 3.645429,6.84618 5.540464,5.997568 8.52907,4.408401 3.2026,1.05619 -0.67907,11.310281 -9.34144,-2.57117 0.40748,23.13468 11.98617,-4.53954 9.97072,6.95053 7.63812,-7.54557 19.25432,-10.06604 1.00642,-15.445413 2.69363,-10.167511 1.29245,-12.158685 -0.23093,-10.166694 -1.51465,-7.317225 -2.58968,-7.176548 -4.22761,-7.971222 7.96157,-14.379101 3.98811,-11.682127 2.42787,-13.1408818 1.49655,-17.0864412 0.29617,-19.887224 -0.65606,-11.306765 -17.54292,22.305855 -7.86064,17.8044273 -2.0771,13.8950363 -0.46963,22.3299514 -19.10255,-31.9108196 -11.75299,-14.5055084 -16.448901,-13.879481 -12.443864,-8.31818 z"
       id="path1508" />
  </g>
</svg>
