<?xml version="1.0" encoding="UTF-8" standalone="no"?>
<svg
   xmlns:dc="http://purl.org/dc/elements/1.1/"
   xmlns:cc="http://creativecommons.org/ns#"
   xmlns:rdf="http://www.w3.org/1999/02/22-rdf-syntax-ns#"
   xmlns:svg="http://www.w3.org/2000/svg"
   xmlns="http://www.w3.org/2000/svg"
   xmlns:sodipodi="http://sodipodi.sourceforge.net/DTD/sodipodi-0.dtd"
   xmlns:inkscape="http://www.inkscape.org/namespaces/inkscape"
   width="10mm"
   height="11mm"
   viewBox="0 0 10 11"
   version="1.1"
   id="svg8"
   inkscape:version="1.0.2 (394de47547, 2021-03-26)"
   sodipodi:docname="todo.svg">
  <defs
     id="defs2" />
  <sodipodi:namedview
     id="base"
     pagecolor="#ffffff"
     bordercolor="#666666"
     borderopacity="1.0"
     inkscape:pageopacity="0.0"
     inkscape:pageshadow="2"
     inkscape:zoom="11.313709"
     inkscape:cx="35.36867"
     inkscape:cy="20.697604"
     inkscape:document-units="mm"
     inkscape:current-layer="layer1"
     inkscape:document-rotation="0"
     showgrid="false"
     inkscape:window-width="1853"
     inkscape:window-height="1025"
     inkscape:window-x="67"
     inkscape:window-y="27"
     inkscape:window-maximized="1" />
  <metadata
     id="metadata5">
    <rdf:RDF>
      <cc:Work
         rdf:about="">
        <dc:format>image/svg+xml</dc:format>
        <dc:type
           rdf:resource="http://purl.org/dc/dcmitype/StillImage" />
        <dc:title></dc:title>
      </cc:Work>
    </rdf:RDF>
  </metadata>
  <g
     inkscape:label="Capa 1"
     inkscape:groupmode="layer"
     id="layer1">
    <path
       style="fill:none;stroke:#000000;stroke-width:0.380994px;stroke-linecap:butt;stroke-linejoin:miter;stroke-opacity:1"
       d="m 8.7649458,10.302617 c 0,0 0,0 -5.4016937,0.02119 0,0 0,0 2.2026096,-5.3848486 3.1894059,5.3118856 3.1990841,5.3636616 3.1990841,5.3636616 z"
       id="path839" />
    <path
       style="fill:#020202;fill-opacity:0.98431373"
       d="M 1.2341037,7.2884831 C 1.648133,5.8805964 1.648133,5.8805964 1.648133,5.8805964"
       id="path964" />
    <path
       style="fill:#020202;fill-opacity:0.984314;stroke-width:0.00826823"
       d="m 5.0560264,9.0887756 c 0,-0.421368 0.003,-0.6866361 0.00779,-0.6883302 0.00428,-0.00151 0.097422,-0.3078536 0.2069753,-0.6807507 0.1095532,-0.3728972 0.1999967,-0.6802366 0.2009853,-0.6829764 9.896e-4,-0.00274 0.033589,0.00424 0.072444,0.015505 l 0.070647,0.020487 0.065211,-0.030129 c 0.035866,-0.016571 0.067954,-0.027269 0.071307,-0.023773 0.00335,0.0035 0.1541476,0.3151741 0.3350994,0.6926189 0.1809519,0.3774445 0.3316641,0.6881701 0.3349159,0.6905014 0.00965,0.00691 0.00978,0.018095 0.00844,0.7088962 l -0.00129,0.6635255 H 5.7422893 5.0560263 Z M 6.0790449,8.3914882 C 6.0614829,8.3462365 5.6311342,7.4592455 5.626741,7.4592455 c -0.00837,0 -0.1445178,0.4702939 -0.1380259,0.4767857 0.00304,0.00304 0.00688,0.00398 0.00854,0.00209 0.00166,-0.0019 0.029875,-0.094602 0.062703,-0.2060164 0.032828,-0.1114145 0.062862,-0.205871 0.066741,-0.2099033 0.00743,-0.00772 0.163377,0.3026685 0.3256375,0.6481194 l 0.095149,0.2025716 -0.024369,0.00514 c -0.033791,0.00713 -0.6418794,0.012674 -0.6486921,0.00591 -0.0045,-0.00447 0.068761,-0.2703248 0.104101,-0.3777462 0.00535,-0.016259 0.00606,-0.030743 0.00172,-0.03508 -0.00434,-0.00434 -0.032561,0.078796 -0.068353,0.201326 -0.033532,0.1147918 -0.062606,0.2133634 -0.06461,0.2190477 -0.00288,0.00817 0.073866,0.010335 0.3660618,0.010335 0.2923915,0 0.3688666,-0.00217 0.3656943,-0.010335 z"
       id="path976" />
    <rect
       style="fill:#00ff00;fill-opacity:0.984314;stroke-width:0.264583"
       id="rect1016"
       width="4.6254001"
       height="1.280722"
       x="3.5249252"
       y="7.7320595" />
    <text
       xml:space="preserve"
       style="font-style:normal;font-weight:normal;font-size:1.20429px;line-height:1.25;font-family:sans-serif;fill:#ff0000;fill-opacity:1;stroke:none;stroke-width:0.0301074"
       x="4.5973048"
       y="8.7055807"
       id="text1020"><tspan
         sodipodi:role="line"
         id="tspan1018"
         x="4.5973048"
         y="8.7055807"
         style="fill:#ff0000;stroke-width:0.0301074">JAVI</tspan></text>
  </g>
</svg>
