<?xml version="1.0" encoding="UTF-8" standalone="no"?>
<svg
   xmlns:dc="http://purl.org/dc/elements/1.1/"
   xmlns:cc="http://creativecommons.org/ns#"
   xmlns:rdf="http://www.w3.org/1999/02/22-rdf-syntax-ns#"
   xmlns:svg="http://www.w3.org/2000/svg"
   xmlns="http://www.w3.org/2000/svg"
   xmlns:sodipodi="http://sodipodi.sourceforge.net/DTD/sodipodi-0.dtd"
   xmlns:inkscape="http://www.inkscape.org/namespaces/inkscape"
   width="10mm"
   height="11mm"
   viewBox="0 0 10 11"
   version="1.1"
   id="svg8"
   inkscape:version="1.0.2 (394de47547, 2021-03-26)"
   sodipodi:docname="triangulo examen  3.svg">
  <defs
     id="defs2" />
  <sodipodi:namedview
     id="base"
     pagecolor="#ffffff"
     bordercolor="#666666"
     borderopacity="1.0"
     inkscape:pageopacity="0.0"
     inkscape:pageshadow="2"
     inkscape:zoom="11.313709"
     inkscape:cx="35.36867"
     inkscape:cy="20.388245"
     inkscape:document-units="mm"
     inkscape:current-layer="layer1"
     inkscape:document-rotation="0"
     showgrid="false"
     inkscape:window-width="1853"
     inkscape:window-height="1025"
     inkscape:window-x="67"
     inkscape:window-y="27"
     inkscape:window-maximized="1" />
  <metadata
     id="metadata5">
    <rdf:RDF>
      <cc:Work
         rdf:about="">
        <dc:format>image/svg+xml</dc:format>
        <dc:type
           rdf:resource="http://purl.org/dc/dcmitype/StillImage" />
        <dc:title></dc:title>
      </cc:Work>
    </rdf:RDF>
  </metadata>
  <g
     inkscape:label="Capa 1"
     inkscape:groupmode="layer"
     id="layer1">
    <text
       xml:space="preserve"
       style="font-style:normal;font-weight:normal;font-size:1.18935px;line-height:1.25;font-family:sans-serif;fill:#ff0000;fill-opacity:1;stroke:none;stroke-width:0.0297337"
       x="1.0519198"
       y="1.3522135"
       id="text835"><tspan
         sodipodi:role="line"
         id="tspan833"
         x="1.0519198"
         y="1.3522135"
         style="fill:#ff0000;stroke-width:0.0297337">JAVI</tspan><tspan
         sodipodi:role="line"
         x="1.0519198"
         y="2.838901"
         style="fill:#ff0000;stroke-width:0.0297337"
         id="tspan837" /></text>
    <path
       style="fill:none;stroke:#000000;stroke-width:0.380994px;stroke-linecap:butt;stroke-linejoin:miter;stroke-opacity:1"
       d="m 9.4894933,5.945463 c 0,0 0,0 -5.4016937,0.021187 0,0 0,0 2.2026096,-5.38484851 C 9.4798151,5.893687 9.4894933,5.9454635 9.4894933,5.945463 Z"
       id="path839" />
    <rect
       style="fill:#000000;stroke-width:0.264583"
       id="rect960"
       width="1.3824617"
       height="1.3744467"
       x="1.0996957"
       y="7.2177377" />
    <path
       style="fill:#020202;fill-opacity:0.98431373"
       d="M 1.2341037,7.2884831 C 1.648133,5.8805964 1.648133,5.8805964 1.648133,5.8805964"
       id="path964" />
    <path
       style="fill:none;stroke:#000000;stroke-width:0.310212px;stroke-linecap:butt;stroke-linejoin:miter;stroke-opacity:1"
       d="M 2.3530174,7.3315515 C 1.6591711,5.8858763 1.6591711,5.8858763 1.6591711,5.8858763"
       id="path966" />
    <path
       style="fill:#1a1a1a;stroke-width:0.03125"
       d="m 5.7993812,25.570791 c 0.2717089,-0.923828 0.5050462,-1.703044 0.5185274,-1.731591 0.017553,-0.03717 0.2524783,0.424121 0.8275752,1.625 0.4416852,0.922297 0.8123304,1.701513 0.8236559,1.731591 0.019412,0.05155 -0.056311,0.05469 -1.3215914,0.05469 H 5.305365 Z"
       id="path968"
       transform="scale(0.26458333)" />
    <path
       style="fill:#1a1a1a;stroke-width:0.03125"
       d="m 5.3379092,27.200856 c 0.01839,-0.05926 0.7787991,-2.632651 0.9064338,-3.067565 0.036569,-0.124609 0.077018,-0.226562 0.089887,-0.226562 0.012869,0 0.1240042,0.20039 0.2469681,0.445312 0.3618165,0.720673 1.3718118,2.845139 1.3587982,2.858153 -0.00658,0.0066 -0.598911,0.02061 -1.3162947,0.03119 -1.2745547,0.01879 -1.3039106,0.01786 -1.2857924,-0.04053 z"
       id="path970"
       transform="scale(0.26458333)" />
    <path
       style="fill:#000000;stroke-width:0.03125"
       d="m 5.3378823,27.200856 c 0.083968,-0.270993 0.9376964,-3.169358 0.9495909,-3.223815 0.00845,-0.03867 0.027687,-0.07031 0.042756,-0.07031 0.015069,0 0.1280051,0.20039 0.250969,0.445312 0.3618165,0.720673 1.3718118,2.845139 1.3587982,2.858153 -0.00658,0.0066 -0.598911,0.02061 -1.3162947,0.03119 -1.2745484,0.01879 -1.3039111,0.01786 -1.2858194,-0.04053 z"
       id="path972"
       transform="scale(0.26458333)" />
    <path
       style="fill:#000000;stroke-width:0.03125"
       d="m 5.4283572,27.226681 c -0.083158,-0.01395 -0.082866,-0.01113 -0.021783,-0.210577 0.026319,-0.08594 0.2382743,-0.803125 0.471012,-1.59375 0.2327377,-0.790625 0.4350693,-1.449877 0.449626,-1.465005 0.028482,-0.0296 0.5275489,0.963844 1.1833778,2.35563 l 0.4049496,0.859375 -0.09906,0.01994 c -0.1093979,0.02202 -2.2759117,0.05322 -2.3881223,0.03439 z"
       id="path974"
       transform="scale(0.26458333)" />
    <path
       style="fill:#020202;stroke-width:0.03125;fill-opacity:0.98431373"
       d="m 4.1705447,29.878083 c 0,-1.592572 0.011343,-2.59516 0.029433,-2.601563 0.016188,-0.0057 0.3682089,-1.163541 0.7822686,-2.572916 0.4140596,-1.409375 0.755893,-2.570973 0.7596297,-2.581328 0.00374,-0.01036 0.1269493,0.01602 0.273806,0.0586 l 0.267012,0.07743 0.2464662,-0.113875 c 0.1355563,-0.06263 0.2568341,-0.103064 0.2695061,-0.08985 0.012672,0.01321 0.5826049,1.191209 1.2665174,2.617772 0.6839128,1.426562 1.2535334,2.600958 1.2658237,2.609769 0.036454,0.02613 0.036957,0.06839 0.031897,2.679293 l -0.00486,2.507813 h -2.59375 -2.59375 z m 3.8665269,-2.635417 c -0.066376,-0.17103 -1.692891,-3.523437 -1.7094952,-3.523437 -0.031639,0 -0.5462088,1.777489 -0.5216725,1.802025 0.01149,0.01149 0.026019,0.01503 0.032287,0.0079 0.00627,-0.0072 0.1129122,-0.357552 0.2369868,-0.778645 0.1240746,-0.421094 0.2375874,-0.778095 0.2522506,-0.793335 0.028072,-0.02918 0.6174878,1.143944 1.230756,2.449585 l 0.3596194,0.765625 -0.092105,0.01943 c -0.1277128,0.02695 -2.4260009,0.0479 -2.4517495,0.02235 -0.017025,-0.01689 0.2598839,-1.0217 0.3934523,-1.427702 0.020215,-0.06145 0.022906,-0.116194 0.00652,-0.132584 -0.016389,-0.01639 -0.1230655,0.297812 -0.2583428,0.760917 -0.1267341,0.433859 -0.2366227,0.806413 -0.2441967,0.827897 -0.010884,0.03087 0.2791802,0.03906 1.3835408,0.03906 1.1051016,0 1.3941416,-0.0082 1.3821519,-0.03906 z"
       id="path976"
       transform="scale(0.26458333)" />
    <path
       style="fill:#020202;fill-opacity:0.984314;stroke-width:0.0078125"
       d="m 5.4800533,27.244479 c -0.1183051,-0.0059 -0.140625,-0.01036 -0.140625,-0.0282 0,-0.0059 0.045415,-0.162854 0.1009216,-0.348773 0.1702325,-0.57019 0.2193909,-0.739167 0.2193909,-0.754132 0,-0.0079 0.0031,-0.01771 0.00688,-0.02179 0.00378,-0.0041 0.032296,-0.09451 0.063362,-0.200948 0.039152,-0.134145 0.055244,-0.201265 0.052444,-0.21875 -0.00571,-0.03567 0.024447,-0.138501 0.040628,-0.138518 0.012354,-1.6e-5 0.081896,-0.229626 0.3891662,-1.284952 0.048762,-0.167474 0.094327,-0.313149 0.1012557,-0.323724 l 0.012598,-0.01923 0.018247,0.02288 c 0.083894,0.105213 0.6374566,1.229805 1.3034365,2.648001 0.2496701,0.531669 0.2892437,0.621691 0.2767684,0.629591 -0.00598,0.0038 -0.03373,0.007 -0.06166,0.0071 -0.02793,9.7e-5 -0.1791016,0.0036 -0.3359375,0.0077 -0.2849628,0.0075 -1.0990356,0.02054 -1.6445313,0.02636 -0.1589843,0.0017 -0.340039,5.47e-4 -0.4023437,-0.0026 z"
       id="path994"
       transform="scale(0.26458333)" />
    <path
       style="fill:#020202;fill-opacity:0.984314;stroke-width:0.0078125"
       d="m 5.5888782,27.248973 c -0.00226,-0.0023 -0.064591,-0.0048 -0.1385027,-0.0057 -0.073912,-8.44e-4 -0.1344828,-0.0036 -0.1346026,-0.0061 -1.198e-4,-0.0025 0.1027122,-0.35517 0.2285156,-0.783651 0.1628602,-0.554694 0.2303542,-0.774062 0.2343611,-0.761718 0.00359,0.01105 0.00454,0.006 0.00262,-0.01391 -0.00366,-0.03803 0.02517,-0.144532 0.039119,-0.144532 0.00561,0 0.020325,-0.03149 0.033774,-0.07227 0.0201,-0.06093 0.1691998,-0.565734 0.3132482,-1.060547 C 6.2823305,24.005818 6.30171,23.942646 6.3133309,23.92491 l 0.012743,-0.01945 0.018247,0.02288 c 0.071907,0.09018 0.3950736,0.737118 0.9695776,1.94097 0.2781041,0.582757 0.6020632,1.277343 0.6147688,1.318099 0.00434,0.01392 0.00186,0.0181 -0.012623,0.02129 -0.025361,0.0056 -0.5818229,0.01845 -1.189897,0.0275 -0.2835937,0.0042 -0.6545683,0.0097 -0.8243879,0.01228 -0.1698196,0.0025 -0.310616,0.0028 -0.3128809,4.85e-4 z m 0.1855744,-1.521748 c -0.00249,-0.0062 -0.00435,-0.0044 -0.00472,0.0047 -3.393e-4,0.0082 0.00151,0.01285 0.0041,0.01025 0.0026,-0.0026 0.00287,-0.0093 6.168e-4,-0.01497 z"
       id="path996"
       transform="scale(0.26458333)" />
  </g>
</svg>
